<?xml version="1.0" encoding="UTF-8" standalone="no" ?>
<!DOCTYPE svg PUBLIC "-//W3C//DTD SVG 1.1//EN" "http://www.w3.org/Graphics/SVG/1.1/DTD/svg11.dtd">
<svg xmlns="http://www.w3.org/2000/svg" xmlns:xlink="http://www.w3.org/1999/xlink" version="1.1" width="85.9312" height="125.70288000000002" xml:space="preserve">
<desc>Created with Fabric.js 1.6.0-rc.1</desc>
<defs></defs>
<g style="stroke: none; stroke-width: 1; stroke-dasharray: none; stroke-linecap: butt; stroke-linejoin: miter; stroke-miterlimit: 10; fill: none; fill-rule: nonzero; opacity: 1;" transform="translate(10 10) rotate(359.44) scale(0.16 0.16)" >
  <polygon points="272.95,305.78 272.95,320.29 272.92,337.2 272.94,343.76 239.06,343.73 239.05,305.78 " style="stroke: none; stroke-width: 1; stroke-dasharray: none; stroke-linecap: butt; stroke-linejoin: miter; stroke-miterlimit: 10; fill: #5D6D7E; fill-rule: nonzero; opacity: 1;" transform="  matrix(1 0 0 1 0 0) "/>
  <path d="M 221.711 360.908 V 477.68 c -0.023 8.781 3.331 17.574 10.03 24.261 c 6.702 6.692 15.496 10.063 24.284 10.063 c 8.763 0 17.528 -3.369 24.236 -10.063 c 6.692 -6.71 10.056 -15.465 10.04 -24.266 l 0.015 -116.764 h -68.605 V 360.908 z" style="stroke: none; stroke-width: 1; stroke-dasharray: none; stroke-linecap: butt; stroke-linejoin: miter; stroke-miterlimit: 10; fill: #2e2220; fill-rule: nonzero; opacity: 1;" transform=" matrix(1 0 0 1 0 0) " stroke-linecap="round" />
  <path d="M 256.025 501.923 c -6.472 0 -12.567 -2.527 -17.157 -7.117 c -4.582 -4.567 -7.094 -10.637 -7.078 -17.096 c 0.008 -3.338 2.716 -6.029 6.047 -6.029 c 0.008 0 0.008 0 0.008 0 c 3.346 0.008 6.047 2.716 6.039 6.062 c -0.008 3.205 1.244 6.228 3.528 8.504 c 2.307 2.304 5.371 3.581 8.614 3.581 c 3.338 0 6.047 2.708 6.047 6.044 C 262.072 499.214 259.364 501.923 256.025 501.923 z" style="stroke: none; stroke-width: 1; stroke-dasharray: none; stroke-linecap: butt; stroke-linejoin: miter; stroke-miterlimit: 10; fill: #FFAF93; fill-rule: nonzero; opacity: 1;" transform=" matrix(1 0 0 1 0 0) " stroke-linecap="round" />
  <path d="M 290.317 360.908 h -68.605 v -5.151 c -0.015 -3.085 1.157 -6.139 3.497 -8.486 c 2.363 -2.348 5.432 -3.543 8.497 -3.543 l 44.605 0.031 c 3.062 -0.031 6.134 1.165 8.486 3.497 c 2.322 2.345 3.528 5.432 3.512 8.481 L 290.317 360.908 z" style="stroke: none; stroke-width: 1; stroke-dasharray: none; stroke-linecap: butt; stroke-linejoin: miter; stroke-miterlimit: 10; fill: #34495E; fill-rule: nonzero; opacity: 1;" transform=" matrix(1 0 0 1 0 0) " stroke-linecap="round" />
  <path d="M 365.64 45.411 c -60.541 -60.544 -158.723 -60.552 -219.282 0 c -60.567 60.567 -60.559 158.748 0 219.29 c 60.559 60.567 158.733 60.552 219.315 0.018 C 426.207 204.151 426.207 105.978 365.64 45.411 z" style="stroke: none; stroke-width: 1; stroke-dasharray: none; stroke-linecap: butt; stroke-linejoin: miter; stroke-miterlimit: 10; fill: #34495E; fill-rule: nonzero; opacity: 1;" transform=" matrix(1 0 0 1 0 0) " stroke-linecap="round" />
  <path d="M 256.002 24.05 c -72.353 0 -131.023 58.662 -131.023 131.016 c 0 72.338 58.678 131.031 131.008 131.031 c 72.392 0 131.039 -58.693 131.039 -131.031 C 387.036 82.71 328.374 24.043 256.002 24.05 z" style="stroke: none; stroke-width: 1; stroke-dasharray: none; stroke-linecap: butt; stroke-linejoin: miter; stroke-miterlimit: 10; fill: #F6F8FB; fill-rule: nonzero; opacity: 1;" transform=" matrix(1 0 0 1 0 0) " stroke-linecap="round" />
  <path d="M 256.01 62.082 c -51.346 0 -93 41.646 -93 92.984 c 0 51.354 41.654 92.984 93 92.984 c 51.356 0 92.992 -41.631 92.992 -92.984 C 349.002 103.728 307.364 62.082 256.01 62.082 z" style="stroke: none; stroke-width: 1; stroke-dasharray: none; stroke-linecap: butt; stroke-linejoin: miter; stroke-miterlimit: 10; fill: #80DCFF; fill-rule: nonzero; opacity: 1;" transform=" matrix(1 0 0 1 0 0) " stroke-linecap="round" />
  <path d="M 303.68 155.066 c 0 26.34 -21.348 47.652 -47.67 47.652 c -26.337 0 -47.67 -21.315 -47.67 -47.652 c 0 -26.307 21.332 -47.662 47.67 -47.662 C 282.332 107.404 303.68 128.757 303.68 155.066 z" style="stroke: none; stroke-width: 1; stroke-dasharray: none; stroke-linecap: butt; stroke-linejoin: miter; stroke-miterlimit: 10; fill: #34495E; fill-rule: nonzero; opacity: 1;" transform=" matrix(1 0 0 1 0 0) " stroke-linecap="round" />
  <path d="M 216.082 74.247 c 8.891 8.873 6.938 25.252 -4.355 36.552 c -11.3 11.282 -27.671 13.235 -36.544 4.329 c -8.906 -8.873 -6.961 -25.252 4.339 -36.552 C 190.815 67.294 207.191 65.34 216.082 74.247 z" style="stroke: none; stroke-width: 1; stroke-dasharray: none; stroke-linecap: butt; stroke-linejoin: miter; stroke-miterlimit: 10; fill: #F6F8FB; fill-rule: nonzero; opacity: 1;" transform=" matrix(1 0 0 1 0 0) " stroke-linecap="round" />
  <path d="M 247.547 127.38 c 4.18 4.173 3.259 11.873 -2.048 17.172 c -5.307 5.325 -13 6.244 -17.188 2.048 c -4.188 -4.18 -3.277 -11.873 2.038 -17.18 C 235.673 124.098 243.364 123.184 247.547 127.38 z" style="stroke: none; stroke-width: 1; stroke-dasharray: none; stroke-linecap: butt; stroke-linejoin: miter; stroke-miterlimit: 10; fill: #F6F8FB; fill-rule: nonzero; opacity: 1;" transform=" matrix(1 0 0 1 0 0) " stroke-linecap="round" />
</g>
  <g transform="translate(53.01 94.1) scale(0.83 0.84)">
   <text font-family="ADAMCG PRO" font-size="40" font-weight="normal" style="stroke: none; stroke-width: 1; stroke-dasharray: none; stroke-linecap: butt; stroke-linejoin: miter; stroke-miterlimit: 10; fill: #e6b3b3; fill-rule: nonzero; opacity: 1;" ><tspan x="-17.05" y="8.98" style="stroke: none; stroke-width: 0; stroke-dasharray: none; stroke-linecap: butt; stroke-linejoin: miter; stroke-miterlimit: 4; fill: #e6b3b3; fill-rule: ; opacity: 1;">M</tspan></text>
 </g>
</svg>